<?xml version="1.0" encoding="UTF-8" standalone="no"?>
<!DOCTYPE svg PUBLIC "-//W3C//DTD SVG 1.1//EN" "http://www.w3.org/Graphics/SVG/1.1/DTD/svg11.dtd">
<svg width="100%" height="100%" viewBox="0 0 80 80" version="1.1" xmlns="http://www.w3.org/2000/svg" xmlns:xlink="http://www.w3.org/1999/xlink" xml:space="preserve" xmlns:serif="http://www.serif.com/" style="fill-rule:evenodd;clip-rule:evenodd;stroke-linejoin:round;stroke-miterlimit:2;">
    <g transform="matrix(1,0,0,1,-21456.3,-17657.9)">
        <g transform="matrix(1,0,0,1,90.9059,0)">
            <rect x="21365.4" y="17657.9" width="79.799" height="79.799" style="fill:rgb(1,0,1);"/>
        </g>
        <g transform="matrix(0.161465,0,0,0.144943,19888.2,14333.9)">
            <path d="M9762.52,23431.1L9774.51,23010.3L9808.2,22984.3L9958.39,22990.9L9948.68,23432.3L9883.01,23428.3L9883.58,23248.4L9846.46,23246.7L9833.9,23431.1L9762.52,23431.1ZM9845.32,23185.6L9888.72,23185L9892.72,23053.1L9845.89,23046.8L9845.32,23185.6Z" style="fill:white;"/>
        </g>
        <g transform="matrix(0.145737,0,0,0.145737,20105.2,14315)">
            <path d="M9682.89,23182.5L9759.03,23174.9C9759.03,23174.9 9764.36,23043.2 9761.32,23028.7C9758.27,23014.2 9747.22,23013.5 9743.61,23007.4C9740,23001.3 9736.4,22988.3 9713.45,22989.1C9690.51,22989.9 9596.85,22991.4 9596.85,22991.4C9596.85,22991.4 9585.43,23007.4 9585.43,23020.3C9585.43,23033.3 9583.15,23367.5 9585.43,23378.2C9587.72,23388.8 9604.47,23420.1 9622.74,23424.6C9641.01,23429.2 9704.21,23440.6 9724.77,23430.7C9745.33,23420.8 9752.18,23420.1 9752.94,23404.8C9753.7,23389.6 9758.27,23232 9758.27,23232L9684.41,23225.1C9684.41,23225.1 9692.03,23354.6 9672.99,23353.1C9653.96,23351.5 9661.57,23206.1 9661.57,23152C9661.57,23098 9672.99,23069.8 9682.13,23074.4C9691.27,23078.9 9682.89,23182.5 9682.89,23182.5Z" style="fill:white;"/>
        </g>
    </g>
</svg>
