<?xml version="1.0" encoding="UTF-8" standalone="no"?>
<!DOCTYPE svg PUBLIC "-//W3C//DTD SVG 1.1//EN" "http://www.w3.org/Graphics/SVG/1.1/DTD/svg11.dtd">
<svg width="100%" height="100%" viewBox="0 0 1920 25" version="1.1" xmlns="http://www.w3.org/2000/svg" xmlns:xlink="http://www.w3.org/1999/xlink" xml:space="preserve" xmlns:serif="http://www.serif.com/" style="fill-rule:evenodd;clip-rule:evenodd;stroke-linejoin:round;stroke-miterlimit:2;">
    <g transform="matrix(1,0,0,1,0,-403.833)">
        <g transform="matrix(1,0,0,2.59585,0,0)">
            <g transform="matrix(1,0,0,0.38523,11.8709,-103.645)">
                <path d="M479.741,675.575L553.938,675.575L557.373,685.459L561.151,679.353L563.899,681.071L570.426,673.857L603.059,674.544L631.569,682.445L639.47,675.231L678.629,675.918L681.721,677.979L686.53,675.575L728.094,676.262L730.842,680.727L735.994,675.918L853.472,675.918L858.968,685.459L879.578,676.605L904.311,676.605L913.585,681.758L917.02,675.231L944.844,675.918L950.683,685.459L960,675.575L1005.3,675.575L1009.08,678.323L1012.17,675.918L1095.45,675.918L1105.15,685.612L1114.06,676.7L1114.06,685.459L1120.19,675.269L1239.38,675.269L1245.22,682.139L1246.94,679.391L1250.37,682.482L1255.18,675.956L1287.13,674.925L1318.73,680.935L1324.31,676.212L1365.53,676.212L1369.4,680.505L1375.41,676.212L1412.34,676.212L1415.77,681.794L1426.93,674.494L1476.74,674.494L1908.13,672.88L1908.13,696.926L-11.871,696.926L-11.871,679.923L479.741,675.575Z" style="fill:rgb(30,34,35);"/>
            </g>
        </g>
    </g>
</svg>
