<?xml version="1.0" encoding="UTF-8" standalone="no"?><!DOCTYPE svg PUBLIC "-//W3C//DTD SVG 1.1//EN" "http://www.w3.org/Graphics/SVG/1.1/DTD/svg11.dtd"><svg width="100%" height="100%" viewBox="0 0 93 94" version="1.1" xmlns="http://www.w3.org/2000/svg" xmlns:xlink="http://www.w3.org/1999/xlink" xml:space="preserve" xmlns:serif="http://www.serif.com/" style="fill-rule:evenodd;clip-rule:evenodd;stroke-linejoin:round;stroke-miterlimit:2;"><g><path d="M0.197,46.749l1.397,-44.029l3.927,-2.72l16.338,0.301l0.036,46.573l-7.654,-0.418l0.066,-18.823l-4.327,-0.178l-1.463,19.294l-8.32,-0Zm9.651,-25.687l5.058,-0.063l0.466,-13.8l-5.458,-0.66l-0.066,14.523Z" style="fill:#fff;"/><path d="M32.052,47.166c2.375,-0.053 5.49,-0.191 9.506,-0.389l-1.141,-2.647l-0.193,-4.921l-6.332,0.61c-0,-0 -0.245,-25.895 -0.14,-30.09c0.104,-4.206 -0.105,-9.428 -0.105,-9.428c-0,0 -5.927,0 -7.695,0.649c-0,0 0.671,31.764 -0.057,35.876c0.178,7.356 -0.487,9.365 -0.487,9.365c-0,0.137 0.048,0.258 0.149,0.365c0.13,-0.009 0.261,-0.014 0.395,-0.014c0.16,-0 0.319,0.003 0.477,0.009c0.158,-0.006 0.322,0.029 0.477,-0.009c1.82,-0.444 3.568,-0.132 5.146,0.624Z" style="fill:#fff;"/><path d="M64.565,9.66l-1.089,-7.95c0,0 -9.039,-1.196 -11.004,-1.196c-1.953,-0 -5.388,0.625 -5.959,1.504c-0.583,0.878 -2.388,4.392 -2.099,5.018c0.128,0.274 0.459,13.978 0.459,13.978l-1.537,0.142c0,0 -0.167,6.237 -0.218,7.357c-0.033,0.725 1.21,0.593 1.178,1.296c-0.29,6.5 -0.51,11.947 -0.396,12.309c0.289,0.944 1.738,3.14 1.738,3.14c0,0 3.355,1.318 4.661,1.318c1.306,-0 13.387,0.318 13.387,0.318l0.939,-8.971c0,0 -12.634,0.56 -12.913,-0.065c-0.292,-0.626 0.165,-8.06 0.165,-8.06l10.882,-1.175c0,0 1.018,-5.918 0.511,-6.226c-0.507,-0.318 -10.328,-0.593 -10.328,-0.593l-1.047,-11.013l1.153,-1.065l11.517,-0.066Z" style="fill:#fff;"/><path d="M64.696,69.103l7.124,-0.711c-0,-0 0.498,-12.322 0.214,-13.679c-0.285,-1.356 -1.319,-1.422 -1.657,-1.993c-0.338,-0.57 -0.675,-1.787 -2.822,-1.712c-2.146,0.075 -10.909,0.215 -10.909,0.215c0,0 -1.068,1.497 -1.068,2.704c-0,1.217 -0.214,32.484 -0,33.485c0.214,0.992 1.781,3.921 3.49,4.342c1.71,0.43 7.623,1.497 9.546,0.57c1.924,-0.926 2.565,-0.991 2.636,-2.423c0.071,-1.422 0.499,-16.167 0.499,-16.167l-6.911,-0.646c0,0 0.713,12.116 -1.068,11.976c-1.781,-0.15 -1.069,-13.753 -1.069,-18.815c0,-5.052 1.069,-7.69 1.924,-7.26c0.855,0.421 0.071,10.114 0.071,10.114Z" style="fill:#fff;"/><path d="M9.213,69.103l7.124,-0.711c-0,-0 0.499,-12.322 0.214,-13.679c-0.285,-1.356 -1.319,-1.422 -1.657,-1.993c-0.338,-0.57 -0.674,-1.787 -2.822,-1.712c-2.146,0.075 -10.909,0.215 -10.909,0.215c0,0 -1.068,1.497 -1.068,2.704c-0,1.217 -0.214,32.484 -0,33.485c0.214,0.992 1.781,3.921 3.491,4.342c1.709,0.43 7.622,1.497 9.545,0.57c1.924,-0.926 2.565,-0.991 2.636,-2.423c0.071,-1.422 0.499,-16.167 0.499,-16.167l-6.911,-0.646c0,0 0.713,12.116 -1.068,11.976c-1.781,-0.15 -1.069,-13.753 -1.069,-18.815c0,-5.052 1.069,-7.69 1.924,-7.26c0.855,0.421 0.071,10.114 0.071,10.114Z" style="fill:#fff;"/><path d="M38.602,50.874c4.02,-0.094 9.298,-0.18 9.988,-0.003c1.141,0.281 2.966,1.31 3.424,2.395c0.459,1.076 0.571,10.937 -0.29,11.966c-0.851,1.029 -4.5,4.276 -4.5,4.276c0,0 2.339,17.262 2.741,18.862c0.393,1.6 1.911,3.819 1.911,3.819l-8.525,-0.114l-2.863,-17.529c0,-0 -1.011,4.253 -0.955,6.582c0.057,2.339 -0.626,11.171 -0.626,11.171l-6.441,-0.168l1.007,-23.704c0.172,-4.56 0.639,-17.005 0.639,-17.005c-0.897,-0.754 3.938,-0.481 4.49,-0.548Zm6.969,5.294l-0.759,-0.169l-4.495,0.152l-0.018,4.067l0.189,1.317l-0.137,0.61l3.365,0.15l1.45,0.057l0.522,-0.757l-0.117,-5.427Z" style="fill:#fff;"/><path d="M87.48,51.053l3.845,2.769c0,0 0.764,3.134 0.679,4.154c-0.085,1.02 -1.187,34.178 -1.187,34.178c0,-0 -2.799,1.104 -4.325,1.188c-1.527,0.084 -5.513,1.188 -8.057,-0.421c-2.545,-1.609 -3.392,-3.06 -3.392,-5.258c-0,-2.208 1.27,-33.673 1.059,-34.777c-0.212,-1.094 -0.296,-2.142 1.824,-1.833c2.12,0.308 9.554,-0 9.554,-0Zm-4.659,6.081c0,0 2.876,-0.599 2.931,0.43c0.054,1.039 -0.434,27.629 -1.14,27.956c-0.705,0.328 -1.574,1.843 -2.226,0.113c-0.651,-1.741 -1.519,-14.446 -1.193,-16.617c0.325,-2.17 1.628,-11.882 1.628,-11.882Z" style="fill:#fff;"/><path d="M29.365,60.58c-1.121,1.029 -2.618,1.758 -4.256,1.663c-4.024,-0.232 -5.921,-3.365 -6.294,-6.297c-0.438,-3.442 2.82,-6.293 6.294,-6.293c1.832,0 3.483,0.786 4.634,2.038c1.044,1.135 1.426,2.207 1.236,4.451c-0.174,2.058 -1.016,3.588 -1.614,4.438Z" style="fill:#fff;"/><path d="M69.002,1.559l7.766,0.063l2.53,17.221l4.595,-17.27l6.991,-0.088l0.606,1.85l-7.425,19.808l5.793,22.644l-0.746,1.598l-7.196,0.229l-3.134,-20.383l-3.01,20.217l-7.383,-0.082l-0.955,-1.788l5.045,-25.084l-3.817,-17.452l0.34,-1.483Z" style="fill:#fff;"/><path d="M16.639,92.692l0.147,-4.02l13.977,-0l-0,4.02l-14.124,-0Z" style="fill:#fff;"/><path d="M19.524,89.244l0.443,-6.97l8.924,-0l0,6.97l-9.367,-0Z" style="fill:#fff;"/><path d="M22.625,64.564c1.517,0.73 3.034,0.819 4.552,0.173l-0.922,16.687l-3.63,0l-0,-16.86Z" style="fill:#fff;"/></g></svg>