<?xml version="1.0" encoding="UTF-8" standalone="no"?><!DOCTYPE svg PUBLIC "-//W3C//DTD SVG 1.1//EN" "http://www.w3.org/Graphics/SVG/1.1/DTD/svg11.dtd"><svg width="100%" height="100%" viewBox="0 0 38 45" version="1.1" xmlns="http://www.w3.org/2000/svg" xmlns:xlink="http://www.w3.org/1999/xlink" xml:space="preserve" xmlns:serif="http://www.serif.com/" style="fill-rule:evenodd;clip-rule:evenodd;stroke-linejoin:round;stroke-miterlimit:2;"><rect x="4.242" y="14.463" width="28.636" height="28.219" style="fill:#d9d9d9;fill-opacity:0.27;"/><g><path d="M12.586,0l22.725,0c1.229,0 2.225,0.996 2.225,2.225l0,39.738c0,1.229 -0.996,2.225 -2.225,2.225l-33.086,-0c-1.229,-0 -2.225,-0.996 -2.225,-2.225l-0,-29.377l11.131,0c0.386,0 0.756,-0.153 1.029,-0.426c0.273,-0.273 0.426,-0.643 0.426,-1.029l0,-11.131Zm12.339,27.188l-12.314,-0l0,1.614l12.314,-0l-0,-1.614Zm-9.589,13.537l3.204,-0c2.7,-0 4.368,-1.644 4.368,-4.248c0,-2.448 -1.668,-4.152 -4.368,-4.152l-3.204,-0l0,8.4Zm2.304,-1.98l0,-4.44l0.78,-0c0.9,-0 2.088,0.456 2.088,2.172c0,1.812 -1.2,2.268 -2.088,2.268l-0.78,-0Zm-9.648,1.98l2.304,-0l0,-2.508l1.056,-0c1.68,-0 3.084,-1.26 3.084,-2.964c0,-1.716 -1.356,-2.928 -3.084,-2.928l-3.36,-0l0,8.4Zm2.304,-4.452l0,-2.004l0.816,-0c0.552,-0 0.984,0.36 0.984,0.984c0,0.636 -0.432,1.02 -0.984,1.02l-0.816,-0Zm6.392,-19.583l-0,3.736l-3.863,0l5.943,5.943l5.943,-5.943l-3.863,0l0,-3.736l-4.16,-0Zm7.3,24.035l2.304,-0l0,-3l2.868,-0l0,-1.944l-2.868,-0l0,-1.512l3.252,-0l0,-1.944l-5.556,-0l0,8.4Z" style="fill:#ececec;"/><path d="M0,11.789l11.789,-11.789l0,10.741c0,0.278 -0.11,0.545 -0.307,0.741c-0.196,0.197 -0.463,0.307 -0.741,0.307l-10.741,0Z" style="fill:#d9d9d9;fill-opacity:0.67;"/></g></svg>