<?xml version="1.0" encoding="UTF-8" standalone="no"?>
<!DOCTYPE svg PUBLIC "-//W3C//DTD SVG 1.1//EN" "http://www.w3.org/Graphics/SVG/1.1/DTD/svg11.dtd">
<svg width="100%" height="100%" viewBox="0 0 63 63" version="1.1" xmlns="http://www.w3.org/2000/svg" xmlns:xlink="http://www.w3.org/1999/xlink" xml:space="preserve" xmlns:serif="http://www.serif.com/" style="fill-rule:evenodd;clip-rule:evenodd;stroke-linejoin:round;stroke-miterlimit:2;">
    <g transform="matrix(1,0,0,1,-7247.2,-4674.38)">
        <g transform="matrix(0.669216,0,0,0.669216,2407.66,1556.61)">
            <rect x="7231.66" y="4658.84" width="93.971" height="93.971" style="fill:rgb(77,77,77);fill-opacity:0;"/>
        </g>
        <g transform="matrix(1,0,0,1,-383.406,-55.3387)">
            <path d="M7641.36,4745.11C7641.68,4745.01 7642.01,4744.96 7642.35,4744.96L7681.75,4744.96C7682.06,4744.96 7682.37,4745.01 7682.65,4745.08L7661.99,4762.25L7641.36,4745.11ZM7684.86,4746.95C7685.06,4747.39 7685.17,4747.87 7685.17,4748.38L7685.17,4773.95C7685.17,4774.24 7685.13,4774.52 7685.06,4774.8L7668.2,4760.79L7684.86,4746.95ZM7683.27,4777.01C7682.81,4777.23 7682.3,4777.36 7681.75,4777.36L7642.35,4777.36C7641.78,4777.36 7641.24,4777.22 7640.76,4776.97L7658.01,4762.64L7661.07,4765.18C7661.34,4765.41 7661.67,4765.51 7661.99,4765.51C7662.32,4765.51 7662.65,4765.41 7662.92,4765.18L7665.98,4762.64L7683.27,4777.01ZM7639.02,4774.71C7638.97,4774.47 7638.94,4774.21 7638.94,4773.95L7638.94,4748.38C7638.94,4747.9 7639.03,4747.44 7639.22,4747.02L7655.78,4760.79L7639.02,4774.71Z" style="fill:white;"/>
        </g>
    </g>
</svg>
