<?xml version="1.0" encoding="UTF-8" standalone="no"?><!DOCTYPE svg PUBLIC "-//W3C//DTD SVG 1.1//EN" "http://www.w3.org/Graphics/SVG/1.1/DTD/svg11.dtd"><svg width="100%" height="100%" viewBox="0 0 27 29" version="1.1" xmlns="http://www.w3.org/2000/svg" xmlns:xlink="http://www.w3.org/1999/xlink" xml:space="preserve" xmlns:serif="http://www.serif.com/" style="fill-rule:evenodd;clip-rule:evenodd;stroke-linejoin:round;stroke-miterlimit:2;"><path d="M3.064,21.471c-1.912,-2.272 -3.064,-5.205 -3.064,-8.404c0,-7.212 5.855,-13.067 13.067,-13.067c7.212,0 13.068,5.855 13.068,13.067c-0,7.212 -5.856,13.068 -13.068,13.068c-1.627,-0 -3.185,-0.298 -4.623,-0.843c0,0 -4.006,1.662 -5.755,2.388c-0.16,0.066 -0.344,0.04 -0.479,-0.069c-0.135,-0.108 -0.2,-0.282 -0.169,-0.452c0.319,-1.773 1.023,-5.688 1.023,-5.688Z" style="fill:url(#_Linear1);"/><g transform="matrix(26.295,0,0,26.295,16.8678,21.6466)"></g><text x="8.304px" y="21.647px" style="font-family:'Calibri-Bold', 'Calibri', sans-serif;font-weight:700;font-size:26.295px;fill:#313131;">!</text><defs><linearGradient id="_Linear1" x1="0" y1="0" x2="1" y2="0" gradientUnits="userSpaceOnUse" gradientTransform="matrix(1.60101e-15,26.1465,-26.1465,1.60101e-15,13.0674,0)"><stop offset="0" style="stop-color:#fff;stop-opacity:1"/><stop offset="0.48" style="stop-color:#f3f3f3;stop-opacity:1"/><stop offset="1" style="stop-color:#d4d4d4;stop-opacity:1"/></linearGradient></defs></svg>