<?xml version="1.0" encoding="UTF-8" standalone="no"?><!DOCTYPE svg PUBLIC "-//W3C//DTD SVG 1.1//EN" "http://www.w3.org/Graphics/SVG/1.1/DTD/svg11.dtd"><svg width="100%" height="100%" viewBox="0 0 50 50" version="1.1" xmlns="http://www.w3.org/2000/svg" xmlns:xlink="http://www.w3.org/1999/xlink" xml:space="preserve" xmlns:serif="http://www.serif.com/" style="fill-rule:evenodd;clip-rule:evenodd;stroke-linejoin:round;stroke-miterlimit:2;"><rect x="0" y="0" width="50" height="50" style="fill:#7b5952;fill-opacity:0;"/><path d="M7.32,9.013l15.468,15.683l-15.553,15.526c-0.001,-0.04 -0.002,-0.081 -0.002,-0.122l0,-30.2c0,-0.301 0.03,-0.598 0.087,-0.887Zm24.236,6.93l-7.511,7.498l-15.968,-16.19c0.374,-0.527 0.862,-0.978 1.44,-1.313c1.413,-0.819 3.156,-0.823 4.573,-0.01l17.466,10.015Zm-23.804,26.273l16.283,-16.256l7.808,7.917l-17.751,10.194c-1.417,0.813 -3.16,0.81 -4.574,-0.008c-0.765,-0.443 -1.371,-1.089 -1.766,-1.847Zm25.4,-25.357l7.344,4.211c1.404,0.805 2.27,2.3 2.271,3.918c0,1.618 -0.865,3.113 -2.268,3.919l-7.063,4.056l-8.144,-8.257l7.86,-7.847Z" style="fill:#fff;"/></svg>