<?xml version="1.0" encoding="UTF-8" standalone="no"?><!DOCTYPE svg PUBLIC "-//W3C//DTD SVG 1.1//EN" "http://www.w3.org/Graphics/SVG/1.1/DTD/svg11.dtd"><svg width="100%" height="100%" viewBox="0 0 50 50" version="1.1" xmlns="http://www.w3.org/2000/svg" xmlns:xlink="http://www.w3.org/1999/xlink" xml:space="preserve" xmlns:serif="http://www.serif.com/" style="fill-rule:evenodd;clip-rule:evenodd;stroke-linejoin:round;stroke-miterlimit:2;"><rect x="0" y="0" width="50" height="50" style="fill:#7b5952;fill-opacity:0;"/><path d="M4.312,8.946c0.312,-0.094 0.644,-0.145 0.987,-0.145l39.402,0c0.312,0 0.613,0.042 0.9,0.12l-20.66,17.168l-20.629,-17.143Zm43.493,1.844c0.2,0.434 0.311,0.917 0.311,1.426l0,25.568c0,0.293 -0.037,0.578 -0.106,0.849l-16.856,-14.006l16.651,-13.837Zm-1.587,30.054c-0.457,0.227 -0.972,0.355 -1.517,0.355l-39.402,-0c-0.574,-0 -1.115,-0.142 -1.589,-0.392l17.245,-14.33l3.059,2.542c0.271,0.225 0.601,0.332 0.927,0.328c0.327,0.004 0.657,-0.103 0.927,-0.328l3.06,-2.542l17.29,14.367Zm-44.247,-2.292c-0.057,-0.247 -0.087,-0.504 -0.087,-0.768l-0,-25.568c-0,-0.481 0.1,-0.939 0.279,-1.354l16.565,13.765l-16.757,13.925Z" style="fill:#4d320f;"/></svg>