<?xml version="1.0" encoding="UTF-8" standalone="no"?><!DOCTYPE svg PUBLIC "-//W3C//DTD SVG 1.1//EN" "http://www.w3.org/Graphics/SVG/1.1/DTD/svg11.dtd"><svg width="100%" height="100%" viewBox="0 0 50 50" version="1.1" xmlns="http://www.w3.org/2000/svg" xmlns:xlink="http://www.w3.org/1999/xlink" xml:space="preserve" xmlns:serif="http://www.serif.com/" style="fill-rule:evenodd;clip-rule:evenodd;stroke-linejoin:round;stroke-miterlimit:2;"><rect x="0" y="0" width="50" height="50" style="fill:#7b5952;fill-opacity:0;"/><path d="M7.233,39.734l0,-29.834c0,-0.09 0.003,-0.18 0.008,-0.269l14.87,15.08l-14.878,15.023Zm1.198,-32.922c0.311,-0.34 0.676,-0.636 1.086,-0.874c1.413,-0.819 3.156,-0.823 4.573,-0.01l16.979,9.736l-6.969,7.038l-15.669,-15.89Zm25.176,10.308l6.889,3.95c1.404,0.805 2.27,2.3 2.271,3.918c0,1.618 -0.865,3.113 -2.268,3.919l-6.565,3.769l-7.849,-7.961l7.522,-7.595Zm-2.207,17.012l-17.308,9.939c-1.417,0.813 -3.16,0.81 -4.574,-0.008c-0.547,-0.317 -1.012,-0.737 -1.378,-1.227l15.955,-16.112l7.305,7.408Z" style="fill:#fff;"/></svg>