<?xml version="1.0" encoding="UTF-8" standalone="no"?><!DOCTYPE svg PUBLIC "-//W3C//DTD SVG 1.1//EN" "http://www.w3.org/Graphics/SVG/1.1/DTD/svg11.dtd"><svg width="100%" height="100%" viewBox="0 0 50 50" version="1.1" xmlns="http://www.w3.org/2000/svg" xmlns:xlink="http://www.w3.org/1999/xlink" xml:space="preserve" xmlns:serif="http://www.serif.com/" style="fill-rule:evenodd;clip-rule:evenodd;stroke-linejoin:round;stroke-miterlimit:2;"><rect x="0" y="0" width="50" height="50" style="fill:#7b5952;fill-opacity:0;"/><path d="M41.047,9.339c-2.993,-1.4 -6.193,-2.418 -9.538,-2.997c-0.411,0.743 -0.891,1.742 -1.222,2.537c-3.556,-0.535 -7.08,-0.535 -10.571,-0c-0.331,-0.795 -0.821,-1.794 -1.236,-2.537c-3.349,0.579 -6.553,1.601 -9.545,3.005c-6.037,9.121 -7.673,18.016 -6.855,26.785c4.004,2.99 7.884,4.806 11.698,5.995c0.942,-1.297 1.782,-2.675 2.506,-4.127c-1.378,-0.523 -2.698,-1.17 -3.946,-1.92c0.331,-0.245 0.655,-0.501 0.968,-0.765c7.607,3.558 15.872,3.558 23.388,-0c0.317,0.264 0.64,0.52 0.968,0.765c-1.251,0.754 -2.575,1.4 -3.953,1.924c0.723,1.448 1.56,2.83 2.505,4.126c3.818,-1.188 7.702,-3.004 11.706,-5.998c0.96,-10.165 -1.64,-18.978 -6.873,-26.793Zm-23.727,21.4c-2.284,0 -4.156,-2.131 -4.156,-4.728c-0,-2.596 1.832,-4.731 4.156,-4.731c2.324,-0 4.196,2.132 4.156,4.731c0.004,2.597 -1.832,4.728 -4.156,4.728Zm15.36,0c-2.284,0 -4.157,-2.131 -4.157,-4.728c0,-2.596 1.833,-4.731 4.157,-4.731c2.323,-0 4.196,2.132 4.156,4.731c0,2.597 -1.833,4.728 -4.156,4.728Z" style="fill:#4d320f;fill-rule:nonzero;"/></svg>