<?xml version="1.0" encoding="UTF-8" standalone="no"?><!DOCTYPE svg PUBLIC "-//W3C//DTD SVG 1.1//EN" "http://www.w3.org/Graphics/SVG/1.1/DTD/svg11.dtd"><svg width="100%" height="100%" viewBox="0 0 50 50" version="1.1" xmlns="http://www.w3.org/2000/svg" xmlns:xlink="http://www.w3.org/1999/xlink" xml:space="preserve" xmlns:serif="http://www.serif.com/" style="fill-rule:evenodd;clip-rule:evenodd;stroke-linejoin:round;stroke-miterlimit:2;"><rect x="-0" y="0" width="50" height="50" style="fill:#7b5952;fill-opacity:0;"/><path d="M8.465,5.128c-1.951,1.158 -5.796,5.575 -5.832,6.733l-0,1.917c-0,2.43 2.272,4.566 4.334,4.566c2.477,0 4.54,-2.052 4.54,-4.488c0,2.436 1.993,4.488 4.469,4.488c2.477,0 4.406,-2.052 4.406,-4.488c0,2.436 2.119,4.488 4.596,4.488l0.044,0c2.477,0 4.596,-2.052 4.596,-4.488c0,2.436 1.929,4.488 4.406,4.488c2.476,0 4.469,-2.052 4.469,-4.488c-0,2.436 2.064,4.488 4.54,4.488c2.062,0 4.334,-2.135 4.334,-4.566l0,-1.917c-0.036,-1.158 -3.881,-5.575 -5.832,-6.733c-6.064,-0.213 -10.269,-0.25 -16.535,-0.249c-6.266,0 -14.809,0.098 -16.535,0.249l0,-0Zm11.886,12.072c-0.237,0.413 -0.53,0.79 -0.872,1.122c-0.935,0.914 -2.216,1.481 -3.629,1.481c-1.359,0.001 -2.665,-0.531 -3.637,-1.482c-0.338,-0.332 -0.596,-0.686 -0.831,-1.099l-0.002,0c-0.235,0.414 -0.563,0.769 -0.903,1.101c-0.971,0.95 -2.278,1.481 -3.636,1.48c-0.171,0 -0.348,-0.047 -0.491,-0.096c-0.199,2.073 -0.283,4.055 -0.313,5.499l-0,0.008c-0.004,0.734 -0.008,1.337 -0.011,2.175c0.038,4.35 -0.431,14.099 1.917,16.495c3.64,0.848 10.338,1.235 17.057,1.237l0.001,0c6.719,-0.002 13.416,-0.389 17.056,-1.237c2.348,-2.396 1.879,-12.145 1.918,-16.495c-0.004,-0.838 -0.008,-1.441 -0.011,-2.175l-0.001,-0.008c-0.029,-1.445 -0.113,-3.426 -0.313,-5.499c-0.143,0.049 -0.32,0.096 -0.49,0.096c-1.359,0.001 -2.665,-0.531 -3.637,-1.481c-0.34,-0.332 -0.668,-0.686 -0.903,-1.1l-0.002,-0.001c-0.235,0.413 -0.493,0.768 -0.831,1.1c-0.972,0.95 -2.278,1.482 -3.637,1.481c-1.413,0 -2.694,-0.567 -3.629,-1.481c-0.341,-0.331 -0.635,-0.709 -0.872,-1.122c-0.234,0.412 -0.524,0.79 -0.863,1.122c-0.971,0.951 -2.278,1.483 -3.637,1.481c-0.049,0 -0.098,-0.002 -0.148,-0.003l-0.001,-0c-0.049,0.001 -0.098,0.003 -0.148,0.003c-1.359,0.002 -2.666,-0.53 -3.637,-1.481c-0.339,-0.332 -0.629,-0.709 -0.864,-1.122l-0,0.001Zm-3.735,4.829l-0.001,0.002l0.003,0c1.479,0.003 2.793,0 4.421,1.777c1.282,-0.134 2.62,-0.202 3.96,-0.2l0.002,0c1.34,-0.001 2.678,0.066 3.96,0.2c1.628,-1.777 2.942,-1.774 4.421,-1.777l0.003,0l-0.001,-0.002c0.699,0 3.494,0 5.442,5.471l2.092,7.505c1.551,5.583 -0.496,5.719 -3.049,5.724c-3.786,-0.141 -5.883,-2.89 -5.883,-5.64c-2.096,0.344 -4.541,0.516 -6.986,0.516l-0.001,-0c-2.445,-0 -4.89,-0.172 -6.986,-0.516c0,2.75 -2.096,5.499 -5.882,5.64c-2.553,-0.005 -4.6,-0.141 -3.05,-5.724l2.093,-7.505c1.948,-5.471 4.743,-5.471 5.442,-5.471l-0,0Zm8.383,4.3l0,0.001c-0.003,0.003 -3.985,3.66 -4.701,4.961l2.607,-0.104l0,2.274c0,0.106 1.047,0.063 2.094,0.014l0.002,0c1.047,0.049 2.093,0.092 2.093,-0.014l0,-2.274l2.608,0.104c-0.716,-1.301 -4.702,-4.961 -4.702,-4.961l0,-0.001l-0,-0l-0.001,-0Z" style="fill:#4d320f;fill-rule:nonzero;"/></svg>