<?xml version="1.0" encoding="UTF-8" standalone="no"?>
<!DOCTYPE svg PUBLIC "-//W3C//DTD SVG 1.1//EN" "http://www.w3.org/Graphics/SVG/1.1/DTD/svg11.dtd">
<svg width="100%" height="100%" viewBox="0 0 63 63" version="1.1" xmlns="http://www.w3.org/2000/svg" xmlns:xlink="http://www.w3.org/1999/xlink" xml:space="preserve" xmlns:serif="http://www.serif.com/" style="fill-rule:evenodd;clip-rule:evenodd;stroke-linejoin:round;stroke-miterlimit:2;">
    <g transform="matrix(1,0,0,1,-7380.01,-4674.38)">
        <g transform="matrix(0.669216,0,0,0.669216,2540.47,1556.61)">
            <rect x="7231.66" y="4658.84" width="93.971" height="93.971" style="fill:rgb(77,77,77);fill-opacity:0;"/>
        </g>
        <g transform="matrix(0.175122,0,0,0.175122,7389.97,4686.5)">
            <path d="M31.99,1.365C21.287,7.72 0.2,31.945 0,38.298L0,48.814C0,62.144 12.46,73.86 23.773,73.86C37.357,73.86 48.675,62.602 48.676,49.24C48.676,62.602 59.606,73.86 73.191,73.86C86.777,73.86 97.356,62.602 97.356,49.24C97.356,62.602 108.978,73.86 122.563,73.86L122.809,73.86C136.395,73.86 148.017,62.602 148.017,49.24C148.017,62.602 158.597,73.86 172.181,73.86C185.766,73.86 196.696,62.602 196.696,49.24C196.696,62.602 208.016,73.86 221.599,73.86C232.912,73.86 245.372,62.146 245.372,48.814L245.372,38.298C245.172,31.944 224.085,7.718 213.384,1.365C180.118,0.197 157.056,-0.005 122.685,0C88.315,0.003 41.457,0.54 31.988,1.365L31.99,1.365ZM97.184,67.582C95.885,69.846 94.276,71.918 92.404,73.737C87.276,78.751 80.247,81.859 72.498,81.859C65.044,81.866 57.877,78.947 52.55,73.733C50.692,71.913 49.28,69.967 47.987,67.701L47.981,67.705C46.689,69.975 44.889,71.92 43.027,73.742C37.698,78.952 30.532,81.869 23.079,81.862C22.145,81.862 21.173,81.604 20.387,81.334C19.295,92.706 18.834,103.574 18.671,111.498L18.669,111.543C18.649,115.567 18.629,118.876 18.609,123.473C18.819,147.333 16.246,200.807 29.129,213.946C49.093,218.601 85.829,220.721 122.684,220.734L122.69,220.734C159.544,220.721 196.28,218.601 216.244,213.946C229.127,200.806 226.554,147.332 226.764,123.472C226.742,118.876 226.724,115.567 226.704,111.542L226.701,111.497C226.539,103.571 226.078,92.704 224.986,81.332C224.2,81.602 223.229,81.86 222.294,81.86C214.841,81.867 207.675,78.95 202.346,73.74C200.484,71.918 198.684,69.974 197.391,67.703L197.385,67.699C196.091,69.965 194.68,71.912 192.822,73.731C187.495,78.944 180.329,81.863 172.875,81.856C165.127,81.856 158.097,78.746 152.969,73.733C151.097,71.914 149.488,69.842 148.189,67.578C146.904,69.84 145.31,71.911 143.453,73.733C138.124,78.946 130.957,81.864 123.503,81.857C123.233,81.857 122.963,81.845 122.693,81.837L122.686,81.837C122.416,81.845 122.146,81.857 121.873,81.857C114.419,81.864 107.252,78.946 101.923,73.734C100.066,71.912 98.472,69.841 97.187,67.579L97.184,67.582ZM76.698,94.072L76.696,94.082L76.711,94.082C84.824,94.099 92.031,94.082 100.961,103.828C107.989,103.091 115.333,102.723 122.683,102.734L122.689,102.734C130.039,102.724 137.383,103.091 144.412,103.828C153.342,94.081 160.549,94.098 168.662,94.082L168.676,94.082L168.674,94.072C172.507,94.072 187.84,94.072 198.524,124.079L210,165.244C218.504,195.868 207.277,196.617 193.273,196.644C172.505,195.871 161.006,180.789 161.006,165.709C149.51,167.593 136.099,168.535 122.688,168.536L122.682,168.536C109.27,168.536 95.859,167.593 84.364,165.709C84.364,180.789 72.864,195.871 52.097,196.644C38.093,196.617 26.867,195.869 35.371,165.244L46.85,124.08C57.534,94.073 72.867,94.073 76.7,94.073L76.698,94.072ZM122.683,117.654L122.683,117.66C122.663,117.68 100.82,137.74 96.893,144.875L111.197,144.302L111.197,156.776C111.197,157.36 116.937,157.122 122.683,156.856L122.689,156.856C128.433,157.122 134.174,157.36 134.174,156.776L134.174,144.302L148.478,144.875C144.55,137.74 122.688,117.66 122.688,117.66L122.688,117.654L122.685,117.656L122.683,117.654Z" style="fill:white;fill-rule:nonzero;"/>
        </g>
    </g>
</svg>
