<?xml version="1.0" encoding="UTF-8" standalone="no"?>
<!DOCTYPE svg PUBLIC "-//W3C//DTD SVG 1.1//EN" "http://www.w3.org/Graphics/SVG/1.1/DTD/svg11.dtd">
<svg width="100%" height="100%" viewBox="0 0 47 48" version="1.1" xmlns="http://www.w3.org/2000/svg" xmlns:xlink="http://www.w3.org/1999/xlink" xml:space="preserve" xmlns:serif="http://www.serif.com/" style="fill-rule:evenodd;clip-rule:evenodd;stroke-linejoin:round;stroke-miterlimit:2;">
    <g transform="matrix(1,0,0,1,-9401.22,-8162.72)">
        <g transform="matrix(0.590433,0,0,0.699305,4766.14,8030.13)">
            <g transform="matrix(0.0866685,0,0,0.0731754,6941.25,107.819)">
                <g>
                    <g transform="matrix(1.15708,0,0,1.03868,-807.141,-22755.8)">
                        <path d="M9916.52,23430.3L9883.01,23428.3L9883.58,23248.4L9846.46,23246.7L9833.9,23431.1L9762.52,23431.1L9774.51,23010.3L9808.2,22984.3L9948.37,22987.2L9948.67,23419.9C9945.92,23420.6 9943.04,23421.1 9939.99,23421.4C9931.4,23422.4 9923.53,23425.5 9916.52,23430.3ZM9845.32,23185.6L9888.72,23185L9892.72,23053.1L9845.89,23046.8L9845.32,23185.6Z" style="fill:white;"/>
                    </g>
                    <g transform="matrix(1.15708,0,0,1.03868,-236.171,-22760.3)">
                        <path d="M9565.13,23438.6C9581.59,23438 9601.05,23437 9623.92,23435.7L9614.13,23410.4L9612.48,23363.4L9558.15,23369.2C9558.15,23369.2 9556.05,23121.7 9556.95,23081.6C9557.84,23041.4 9556.05,22991.5 9556.05,22991.5C9556.05,22991.5 9505.2,22991.5 9490.03,22997.7C9490.03,22997.7 9495.79,23301.3 9489.54,23340.6C9490.38,23379.4 9489.02,23402.6 9487.64,23415.6C9488.43,23415.6 9489.22,23415.6 9490.03,23415.6C9491.4,23415.6 9492.76,23415.6 9494.12,23415.7C9495.48,23415.6 9496.89,23415.9 9498.22,23415.6C9523.27,23408.8 9546.75,23420.6 9565.13,23438.6Z" style="fill:white;"/>
                    </g>
                    <g transform="matrix(1.25854,0,0,1.09003,-1645.34,-23464.1)">
                        <path d="M10149.2,22639.3L10140.6,22566.9C10140.6,22566.9 10069.3,22556 10053.8,22556C10038.4,22556 10011.3,22561.7 10006.8,22569.7C10002.2,22577.7 9988,22609.7 9990.28,22615.4C9991.29,22617.9 9993.9,22742.7 9993.9,22742.7L9981.78,22744C9981.78,22744 9980.46,22800.8 9980.06,22811C9979.8,22817.6 9989.6,22816.4 9989.35,22822.8C9987.06,22882 9985.33,22931.6 9986.23,22934.9C9988.51,22943.5 9999.94,22963.5 9999.94,22963.5C9999.94,22963.5 10026.4,22975.5 10036.7,22975.5C10047,22975.5 10142.3,22978.4 10142.3,22978.4L10149.7,22896.7C10149.7,22896.7 10050,22901.8 10047.8,22896.1C10045.5,22890.4 10049.1,22822.7 10049.1,22822.7L10135,22812C10135,22812 10143,22758.1 10139,22755.3C10135,22752.4 10057.5,22749.9 10057.5,22749.9L10049.3,22649.6L10058.4,22639.9L10149.2,22639.3Z" style="fill:white;"/>
                    </g>
                    <g transform="matrix(0.928788,0,0,0.928788,1586.93,-19728.1)">
                        <path d="M9736.58,22996.4C9732.41,22992.2 9725.68,22988.7 9713.45,22989.1C9690.51,22989.9 9596.85,22991.4 9596.85,22991.4C9596.85,22991.4 9585.43,23007.4 9585.43,23020.3C9585.43,23033.3 9583.15,23367.5 9585.43,23378.2C9587.72,23388.8 9604.47,23420.1 9622.74,23424.6C9641.01,23429.2 9704.21,23440.6 9724.77,23430.7C9745.33,23420.8 9752.18,23420.1 9752.94,23404.8C9753.7,23389.6 9758.27,23232 9758.27,23232L9684.41,23225.1C9684.41,23225.1 9692.03,23354.6 9672.99,23353.1C9653.96,23351.5 9661.57,23206.1 9661.57,23152C9661.57,23098 9672.99,23069.8 9682.13,23074.4C9691.27,23078.9 9682.89,23182.5 9682.89,23182.5L9759.03,23174.9C9759.03,23174.9 9759.97,23151.7 9760.84,23123.6C9753.63,23113.5 9747.26,23102.5 9741.3,23091C9730.55,23070.2 9732.8,23063.7 9731.06,23050C9728.81,23032.3 9730.87,23013.6 9736.58,22996.4Z" style="fill:white;"/>
                    </g>
                    <g transform="matrix(0.928788,0,0,0.928788,2125.81,-19728.1)">
                        <path d="M9682.89,23182.5L9759.03,23174.9C9759.03,23174.9 9764.36,23043.2 9761.32,23028.7C9758.27,23014.2 9747.22,23013.5 9743.61,23007.4C9740,23001.3 9736.4,22988.3 9713.45,22989.1C9690.51,22989.9 9596.85,22991.4 9596.85,22991.4C9596.85,22991.4 9585.43,23007.4 9585.43,23020.3C9585.43,23033.3 9583.15,23367.5 9585.43,23378.2C9587.72,23388.8 9604.47,23420.1 9622.74,23424.6C9641.01,23429.2 9704.21,23440.6 9724.77,23430.7C9745.33,23420.8 9752.18,23420.1 9752.94,23404.8C9753.7,23389.6 9758.27,23232 9758.27,23232L9684.41,23225.1C9684.41,23225.1 9692.03,23354.6 9672.99,23353.1C9653.96,23351.5 9661.57,23206.1 9661.57,23152C9661.57,23098 9672.99,23069.8 9682.13,23074.4C9691.27,23078.9 9682.89,23182.5 9682.89,23182.5Z" style="fill:white;"/>
                    </g>
                    <g transform="matrix(0.928788,0,0,0.747573,1677.26,-15133)">
                        <path d="M9808.24,22642.8C9808.49,22666.6 9796.5,22834.4 9796.5,22854.6C9796.5,22875.9 9788.58,22968.5 9788.58,22968.5L9708.18,22963.6C9708.18,22963.6 9705.13,22760.2 9705.74,22725.4C9706.05,22708 9705.66,22672 9705.66,22672L9727.2,22642.8C9734.33,22645.7 9742,22647.9 9750.28,22649.3C9755.94,22650.4 9761.72,22651 9767.6,22650.9C9773.48,22651 9779.26,22650.4 9784.92,22649.3C9793.17,22647.9 9800.93,22645.7 9808.24,22642.8Z" style="fill:white;"/>
                    </g>
                    <g transform="matrix(0.928788,0,0,0.928788,1552.21,-19732.9)">
                        <path d="M10013.8,22993.3C10056.9,22992.2 10130.6,22990.6 10139.1,22992.8C10151.3,22995.8 10170.8,23006.8 10175.7,23018.4C10180.6,23029.9 10181.8,23135.3 10172.6,23146.3C10163.5,23157.3 10124.5,23192 10124.5,23192C10124.5,23192 10149.5,23376.5 10153.8,23393.6C10158,23410.7 10164.4,23434.4 10164.4,23434.4L10083.1,23433.2L10049.9,23254.1C10049.9,23254.1 10041.7,23291.3 10042.3,23316.2C10042.9,23341.2 10035.6,23435.6 10035.6,23435.6L9966.76,23433.8L9978.41,23159.8C9992.45,23149.7 10003.8,23136.9 10012.6,23122.8L9958.8,23061.8L10013.8,22993.3ZM10049.9,23056.4C10049.9,23056.4 10103.2,23047.3 10111.4,23059C10119.6,23070.7 10117.9,23112.9 10100.4,23127.5C10094.4,23132.5 10052.2,23125.4 10049.1,23120C10045.9,23114.5 10049.9,23056.4 10049.9,23056.4Z" style="fill:white;"/>
                    </g>
                    <g transform="matrix(0.928788,0,0,0.928788,2331.58,-19723.2)">
                        <path d="M9715.64,22984.3L9756.74,23013.9C9756.74,23013.9 9764.9,23047.4 9764,23058.3C9763.09,23069.2 9751.31,23423.6 9751.31,23423.6C9751.31,23423.6 9721.39,23435.4 9705.08,23436.3C9688.76,23437.2 9646.16,23449 9618.97,23431.8C9591.77,23414.6 9582.71,23399.1 9582.71,23375.6C9582.71,23352 9596.29,23015.7 9594.03,23003.9C9591.77,22992.2 9590.87,22981 9613.53,22984.3C9636.19,22987.6 9715.64,22984.3 9715.64,22984.3ZM9665.85,23049.3C9665.85,23049.3 9696.59,23042.9 9697.17,23053.9C9697.75,23065 9692.53,23349.2 9684.99,23352.7C9677.45,23356.2 9668.17,23372.4 9661.2,23353.9C9654.24,23335.3 9644.96,23199.5 9648.44,23176.3C9651.92,23153.1 9665.85,23049.3 9665.85,23049.3Z" style="fill:white;"/>
                    </g>
                    <g transform="matrix(0.782426,0,0,0.782426,3074.09,-18186)">
                        <path d="M9890.74,25476.4C9870.06,25495.4 9842.43,25508.8 9812.2,25507.1C9737.97,25502.8 9702.96,25445 9696.08,25390.9C9687.99,25327.4 9748.11,25274.8 9812.2,25274.8C9846.01,25274.8 9876.47,25289.3 9897.71,25312.4L9863.83,25346.3C9845.09,25367.3 9828.45,25383.1 9812.2,25397.9C9825.86,25412.8 9879.03,25465.4 9890.74,25476.4ZM9803.59,25292.1C9784.02,25292.1 9768.14,25308 9768.14,25327.6C9768.14,25347.1 9784.02,25363 9803.59,25363C9823.15,25363 9839.04,25347.1 9839.04,25327.6C9839.04,25308 9823.15,25292.1 9803.59,25292.1Z" style="fill:white;"/>
                    </g>
                    <g transform="matrix(1.15708,0,0,1.04367,-373.737,-22861.9)">
                        <path d="M9978.27,22990.9L10044.9,22991.5L10066.6,23155.3L10106,22991L10166,22990.2L10171.2,23007.8L10107.5,23196.2L10157.2,23411.6L10150.8,23426.8L10089.1,23429L10062.2,23235.1L10036.4,23427.4L9973.01,23426.6L9964.82,23409.6L10008.1,23171L9975.35,23005L9978.27,22990.9Z" style="fill:white;"/>
                    </g>
                </g>
            </g>
        </g>
    </g>
</svg>
