<?xml version="1.0" encoding="UTF-8" standalone="no"?><!DOCTYPE svg PUBLIC "-//W3C//DTD SVG 1.1//EN" "http://www.w3.org/Graphics/SVG/1.1/DTD/svg11.dtd"><svg width="100%" height="100%" viewBox="0 0 40 40" version="1.1" xmlns="http://www.w3.org/2000/svg" xmlns:xlink="http://www.w3.org/1999/xlink" xml:space="preserve" xmlns:serif="http://www.serif.com/" style="fill-rule:evenodd;clip-rule:evenodd;stroke-linecap:round;stroke-linejoin:round;"><path id="Vector" d="M13.99,4.663l-4.197,0c-2.611,0 -3.918,0 -4.916,0.509c-0.877,0.447 -1.59,1.159 -2.037,2.037c-0.508,0.997 -0.508,2.304 -0.508,4.916l-0,17.72c-0,2.612 -0,3.917 0.508,4.915c0.447,0.877 1.16,1.591 2.037,2.038c0.997,0.508 2.302,0.508 4.909,0.508l17.734,-0c2.607,-0 3.91,-0 4.907,-0.508c0.877,-0.447 1.592,-1.162 2.039,-2.039c0.508,-0.997 0.508,-2.301 0.508,-4.907l0,-4.204m2.332,-11.658l-0,-11.658m-0,-0l-11.658,-0m11.658,-0l-16.321,16.321" style="fill:none;fill-rule:nonzero;stroke:#fff;stroke-width:4.66px;"/></svg>